<svg width="100" height="100" viewBox="0 0 27 27" fill="none" xmlns="http://www.w3.org/2000/svg">
<path d="M22.1667 8.08331H4.83341C3.6368 8.08331 2.66675 9.05336 2.66675 10.25V21.0833C2.66675 22.2799 3.6368 23.25 4.83341 23.25H22.1667C23.3634 23.25 24.3334 22.2799 24.3334 21.0833V10.25C24.3334 9.05336 23.3634 8.08331 22.1667 8.08331Z" stroke="#000035" stroke-width="2" stroke-linecap="round" stroke-linejoin="round"/>
<path d="M17.8334 23.25V5.91667C17.8334 5.34203 17.6051 4.79093 17.1988 4.3846C16.7925 3.97827 16.2414 3.75 15.6667 3.75H11.3334C10.7588 3.75 10.2077 3.97827 9.80135 4.3846C9.39502 4.79093 9.16675 5.34203 9.16675 5.91667V23.25" stroke="#000035" stroke-width="2" stroke-linecap="round" stroke-linejoin="round"/>
</svg>
