<svg width="24" height="22" viewBox="0 0 24 22" fill="none" xmlns="http://www.w3.org/2000/svg">
    <path d="M17.9994 8.06961V4.99986C17.9994 3.53292 16.971 2.2108 15.1035 1.27712C13.4563 0.453575 11.2886 0 8.99976 0C6.71061 0 4.54288 0.453575 2.8958 1.27712C1.02843 2.2108 0 3.53292 0 4.99986V8.99969V12.9994V16.9992C0 18.4662 1.02843 19.7883 2.89587 20.722C4.54295 21.5456 6.71068 21.9991 8.99982 21.9991C10.7437 21.9991 12.4061 21.7389 13.8422 21.2455C14.7914 21.7272 15.8642 21.9991 16.9994 21.9991C20.8596 21.9991 24.0001 18.8586 24.0001 14.9984C24 11.4779 21.3876 8.55638 17.9994 8.06961ZM2.00018 12.2017C2.27294 12.386 2.57137 12.5602 2.89587 12.7224C4.54295 13.546 6.71075 13.9995 8.99982 13.9995C9.36079 13.9995 9.71962 13.9876 10.0751 13.9651C10.0251 14.3024 9.99872 14.6475 9.99872 14.9985C9.99872 15.3251 10.0217 15.6466 10.0653 15.9614C9.71382 15.9865 9.35792 15.9991 8.99982 15.9991C4.99359 15.9992 2.00018 14.4155 2.00018 12.9995V12.2017ZM10.7232 11.8996C10.1617 11.9657 9.58414 11.9993 8.99976 11.9993C4.99359 11.9994 2.00018 10.4157 2.00018 8.99969V8.20188C2.27294 8.38624 2.57137 8.56045 2.89587 8.7226C4.54295 9.54621 6.71075 9.99972 8.99982 9.99972C10.2314 9.99972 11.4269 9.8673 12.5261 9.61768C11.7771 10.2415 11.1602 11.0183 10.7232 11.8996ZM8.99976 2.00018C13.0059 2.00018 15.9992 3.58386 15.9992 4.99986C15.9992 6.41585 13.0059 7.9996 8.99976 7.9996C4.99359 7.9996 2.00018 6.41585 2.00018 4.99986C2.00018 3.58386 4.99359 2.00018 8.99976 2.00018ZM2.00018 16.9993V16.2016C2.27294 16.3859 2.57137 16.5601 2.89587 16.7223C4.54295 17.5458 6.71068 17.9994 8.99982 17.9994C9.55187 17.9994 10.1001 17.9722 10.6382 17.9198C10.9433 18.5815 11.3484 19.188 11.8345 19.7193C10.9433 19.9018 9.97831 19.999 8.99976 19.999C4.99359 19.999 2.00018 18.4152 2.00018 16.9993ZM16.9994 19.999C14.2421 19.999 11.9989 17.7558 11.9989 14.9985C11.9989 12.2491 14.2296 10.0112 16.9762 9.99865C16.984 9.99885 16.9915 9.99985 16.9994 9.99985C17.0072 9.99985 17.0147 9.99885 17.0226 9.99865C19.7691 10.0112 21.9998 12.2491 21.9998 14.9985C21.9998 17.7558 19.7566 19.999 16.9994 19.999Z" fill="#9E9E9E" />
</svg>