<svg width="26" height="20" viewBox="0 0 26 20" fill="none" xmlns="http://www.w3.org/2000/svg">
<path d="M20.102 18.2604H1V19.2268H20.102V18.2604Z" fill="#000035" stroke="#000035" stroke-miterlimit="10"/>
<path d="M12.7551 3.76448H1V4.73088H12.7551V3.76448Z" fill="#000035" stroke="#000035" stroke-miterlimit="10" stroke-linecap="round"/>
<path d="M12.2653 8.59647H1V9.56286H12.2653V8.59647Z" fill="#000035" stroke="#000035" stroke-miterlimit="10"/>
<path d="M20.102 13.4285H1V14.3949H20.102V13.4285Z" fill="#000035" stroke="#000035" stroke-miterlimit="10"/>
<path d="M19.6122 11.4957C16.6245 11.4957 14.2245 9.12798 14.2245 6.18047C14.2245 3.23296 16.6245 0.865288 19.6122 0.865288C22.6 0.865288 25 3.23296 25 6.18047C25 9.12798 22.6 11.4957 19.6122 11.4957ZM19.6122 1.83168C17.1633 1.83168 15.2041 3.76448 15.2041 6.18047C15.2041 8.59646 17.1633 10.5293 19.6122 10.5293C22.0612 10.5293 24.0204 8.59646 24.0204 6.18047C24.0204 3.76448 22.0612 1.83168 19.6122 1.83168Z" fill="#000035" stroke="#000035" stroke-width="0.5" stroke-miterlimit="10"/>
<path d="M22.0612 6.66367H19.1225V3.76448H20.102V5.69728H22.0612V6.66367Z" fill="#000035" stroke="#000035" stroke-width="0.5" stroke-miterlimit="10"/>
</svg>
